<?xml version="1.0" encoding="UTF-8"?>
<svg width="36px" height="36px" viewBox="0 0 36 36" version="1.1" xmlns="http://www.w3.org/2000/svg" xmlns:xlink="http://www.w3.org/1999/xlink">
    <!-- Generator: Sketch 46.2 (44496) - http://www.bohemiancoding.com/sketch -->
    <title>ic_categary copy 2</title>
    <desc>Created with Sketch.</desc>
    <defs></defs>
    <g id="ME-公共页面" stroke="none" stroke-width="1" fill="none" fill-rule="evenodd">
        <g id="手机注册" transform="translate(-261.000000, -97.000000)" fill="#757575">
            <g id="ic_email_def_gray" transform="translate(261.000000, 97.000000)">
                <g>
                    <path d="M5,10.9997656 L5,26.5002344 C5,28.1543329 6.34363152,29.5 7.99683887,29.5 L28.0031611,29.5 C29.6552264,29.5 31,28.155328 31,26.5002344 L31,10.9997656 C31,9.34566712 29.6563685,8 28.0031611,8 L7.99683887,8 C6.34477363,8 5,9.34467203 5,10.9997656 Z M3,10.9997656 C3,8.2400687 5.24023796,6 7.99683887,6 L28.0031611,6 C30.7616163,6 33,8.24177483 33,10.9997656 L33,26.5002344 C33,29.2599313 30.759762,31.5 28.0031611,31.5 L7.99683887,31.5 C5.23838368,31.5 3,29.2582252 3,26.5002344 L3,10.9997656 Z" id="Rectangle-6" fill-rule="nonzero"></path>
                    <path d="M17.986908,18.653848 L8.66944881,10.2571418 C8.25917957,9.88741544 7.62686818,9.92028194 7.25714181,10.3305512 C6.88741544,10.7408204 6.92028194,11.3731318 7.33055119,11.7428582 L17.986908,21.346152 L28.6432647,11.7428582 C29.053534,11.3731318 29.0864005,10.7408204 28.7166741,10.3305512 C28.3469477,9.92028194 27.7146364,9.88741544 27.3043671,10.2571418 L17.986908,18.653848 Z" id="Path-5-Copy-3" fill-rule="nonzero"></path>
                    <path d="M14.3122576,17.2740496 L4.81225764,26.2740496 C4.41132504,26.6538805 4.39421872,27.2868143 4.7740496,27.6877469 C5.15388048,28.0886795 5.78681434,28.1057859 6.18774694,27.725955 L15.6877469,18.725955 C16.0886795,18.3461241 16.1057859,17.7131902 15.725955,17.3122576 C15.3461241,16.911325 14.7131902,16.8942187 14.3122576,17.2740496 Z" id="Path-35-Copy-2" fill-rule="nonzero"></path>
                    <path d="M29.8122576,17.2740496 L20.3122576,26.2740496 C19.911325,26.6538805 19.8942187,27.2868143 20.2740496,27.6877469 C20.6538805,28.0886795 21.2868143,28.1057859 21.6877469,27.725955 L31.1877469,18.725955 C31.5886795,18.3461241 31.6057859,17.7131902 31.225955,17.3122576 C30.8461241,16.911325 30.2131902,16.8942187 29.8122576,17.2740496 Z" id="Path-35-Copy-3" fill-rule="nonzero" transform="translate(25.750002, 22.500002) rotate(-90.000000) translate(-25.750002, -22.500002) "></path>
                </g>
            </g>
            <g id="ic_email_def_gray" transform="translate(261.000000, 97.000000)" fill-rule="nonzero">
                <g>
                    <path d="M5,10.9997656 L5,26.5002344 C5,28.1543329 6.34363152,29.5 7.99683887,29.5 L28.0031611,29.5 C29.6552264,29.5 31,28.155328 31,26.5002344 L31,10.9997656 C31,9.34566712 29.6563685,8 28.0031611,8 L7.99683887,8 C6.34477363,8 5,9.34467203 5,10.9997656 Z M3,10.9997656 C3,8.2400687 5.24023796,6 7.99683887,6 L28.0031611,6 C30.7616163,6 33,8.24177483 33,10.9997656 L33,26.5002344 C33,29.2599313 30.759762,31.5 28.0031611,31.5 L7.99683887,31.5 C5.23838368,31.5 3,29.2582252 3,26.5002344 L3,10.9997656 Z" id="Rectangle-6"></path>
                    <path d="M17.986908,18.653848 L8.66944881,10.2571418 C8.25917957,9.88741544 7.62686818,9.92028194 7.25714181,10.3305512 C6.88741544,10.7408204 6.92028194,11.3731318 7.33055119,11.7428582 L17.986908,21.346152 L28.6432647,11.7428582 C29.053534,11.3731318 29.0864005,10.7408204 28.7166741,10.3305512 C28.3469477,9.92028194 27.7146364,9.88741544 27.3043671,10.2571418 L17.986908,18.653848 Z" id="Path-5-Copy-3"></path>
                    <path d="M14.3122576,17.2740496 L4.81225764,26.2740496 C4.41132504,26.6538805 4.39421872,27.2868143 4.7740496,27.6877469 C5.15388048,28.0886795 5.78681434,28.1057859 6.18774694,27.725955 L15.6877469,18.725955 C16.0886795,18.3461241 16.1057859,17.7131902 15.725955,17.3122576 C15.3461241,16.911325 14.7131902,16.8942187 14.3122576,17.2740496 Z" id="Path-35-Copy-2"></path>
                    <path d="M29.8122576,17.2740496 L20.3122576,26.2740496 C19.911325,26.6538805 19.8942187,27.2868143 20.2740496,27.6877469 C20.6538805,28.0886795 21.2868143,28.1057859 21.6877469,27.725955 L31.1877469,18.725955 C31.5886795,18.3461241 31.6057859,17.7131902 31.225955,17.3122576 C30.8461241,16.911325 30.2131902,16.8942187 29.8122576,17.2740496 Z" id="Path-35-Copy-3" transform="translate(25.750002, 22.500002) rotate(-90.000000) translate(-25.750002, -22.500002) "></path>
                </g>
            </g>
        </g>
    </g>
</svg>