<?xml version="1.0" encoding="UTF-8"?>
<svg width="30px" height="29px" viewBox="0 0 30 29" version="1.1" xmlns="http://www.w3.org/2000/svg" xmlns:xlink="http://www.w3.org/1999/xlink">
    <!-- Generator: Sketch 46.2 (44496) - http://www.bohemiancoding.com/sketch -->
    <title>ic_telephone_def_blue</title>
    <desc>Created with Sketch.</desc>
    <defs></defs>
    <g id="ME-公共页面" stroke="none" stroke-width="1" fill="none" fill-rule="evenodd">
        <g id="手机注册" transform="translate(-67.000000, -101.000000)" fill="#757575">
            <g id="ic_telephone_def_blue" transform="translate(64.000000, 97.000000)">
                <g id="Shape">
                    <path d="M18.4674945,23.997791 L18.370383,23.9444241 C18.3431256,23.931356 18.2696579,23.8926941 18.1538821,23.8258828 C17.9474411,23.7067508 17.7064746,23.5543481 17.4348632,23.3661067 C16.6427518,22.8171306 15.7746438,22.093936 14.8613724,21.1756797 C13.8507994,20.1816129 13.1066368,19.3011669 12.5827115,18.5417471 C12.2853912,18.1107869 12.1319933,17.8311595 12.0842633,17.7173639 L12.0248932,17.5986049 C11.7150189,17.0697572 11.8564402,16.2595702 12.32596,15.8670155 C13.312071,14.880155 13.8755153,13.2070277 13.6368832,11.8547791 L12.658318,6.30957642 C12.4783894,5.28998086 11.536532,4.5 10.5039915,4.5 L6,4.5 C4.60202949,4.5 3.5,5.59910827 3.5,7 C3.5,14.4745361 5.78827931,21.1035894 10.2852506,25.6993807 C14.7087699,30.0173668 21.7660542,32.5 29,32.5 C30.6716489,32.5 32.5,31.4990293 32.5,30 L32.5,25.9998075 C32.5,24.9743039 31.7291749,24.0263269 30.725125,23.814948 L24.1628977,22.4334265 C22.8090207,22.1483997 21.123741,22.6963971 20.1495979,23.7066522 C19.7549479,24.1719712 18.9679821,24.310126 18.4674945,23.997791 Z M30.1721062,30.1915993 C29.8278658,30.3800612 29.367842,30.5 29,30.5 C22.2580557,30.5 15.7046385,28.1946187 11.6984887,24.2843789 C7.61436095,20.1101258 5.5,13.984907 5.5,7 C5.5,6.70486787 5.70541237,6.5 6,6.5 L10.5039915,6.5 C10.5661652,6.5 10.6774979,6.59338001 10.6887509,6.65714709 L11.6673161,12.2023498 C11.7978399,12.9419849 11.3992697,14.0348672 10.8263837,14.5138439 C9.80429606,15.5594863 9.55047088,17.2697845 10.2675411,18.5541874 C10.3787797,18.800018 10.5922956,19.1786054 10.9364759,19.6774883 C11.5334339,20.5427678 12.3594273,21.5200307 13.4511135,22.5937942 C14.4434531,23.5916361 15.405008,24.3926785 16.2956139,25.0099166 C16.8098942,25.3663407 17.2056378,25.598517 17.4565261,25.7237661 C18.7339235,26.4880888 20.4643918,26.2323462 21.501969,25.1735741 C21.9715463,24.6178966 23.0379565,24.2404376 23.7508768,24.3905261 L30.3131041,25.7720476 C30.3925176,25.7887662 30.5,25.9209503 30.5,25.9998075 L30.5,29.9453043 C30.4332,30.0232948 30.3225228,30.1092505 30.1721062,30.1915993 Z" fill-rule="nonzero"></path>
                </g>
            </g>
        </g>
    </g>
</svg>